<?xml version="1.0" encoding="utf-8"?>
<!-- Svg Vector Icons : http://www.onlinewebfonts.com/icon -->
<!DOCTYPE svg PUBLIC "-//W3C//DTD SVG 1.1//EN" "http://www.w3.org/Graphics/SVG/1.1/DTD/svg11.dtd">
<svg version="1.1" xmlns="http://www.w3.org/2000/svg" xmlns:xlink="http://www.w3.org/1999/xlink" x="0px" y="0px" viewBox="0 0 1000 1000" enable-background="new 0 0 1000 1000" xml:space="preserve">
<metadata> Svg Vector Icons : http://www.onlinewebfonts.com/icon </metadata>
<g><path d="M698.8,195.1c61.8-50.5,109.9-111.6,81.8-153.6c-30.7-45.7-117.7-40.8-193,9.3c-33.6,22.4-61.2,50.4-77.6,79c-4.4,7.6-7.5,15.1-10.2,22.5c-12.4-35-42.5-71.8-87.2-101.5c-75.4-50.1-162.4-55-193-9.2c-17.1,25.6-15.3,59.3,5,94.9c12.4,21.6,49.7,45.9,76.5,58.6H69.3v198.8h66.3V990h728.9V393.9h66.3V195.1H698.8z M567.6,162.5c11.2-19.6,31.9-40.3,56.8-56.8c29.3-19.5,61-31.1,84.6-31.1c11.5,0,16,2.9,16.4,3.6c4.6,6.8-10.9,46.9-64.3,82.4c-29.3,19.5-61,31.1-84.7,31.1c-11.5,0-15.9-2.9-16.4-3.6C559.4,187.1,558.2,178.8,567.6,162.5z M274.8,78.2c0.5-0.7,4.9-3.6,16.4-3.6c23.7,0,55.3,11.6,84.6,31.1c53.3,35.5,68.9,75.6,64.3,82.4c-0.5,0.7-4.9,3.6-16.4,3.6c-23.7,0-55.3-11.6-84.6-31.1c-24.8-16.5-45.6-37.2-56.8-56.8C273,87.4,274.2,79.1,274.8,78.2z M367.5,924H201.8V393.9h165.7V924z M367.5,327.6H135.5v-66.3h231.9V327.6z M566.3,924H433.7V261.3h132.5V924z M798.2,924H632.5V393.9h165.7V924z M864.5,327.6H632.5v-66.3h231.9V327.6z"/></g>
</svg>