<?xml version="1.0" encoding="utf-8"?>
<!-- Svg Vector Icons : http://www.onlinewebfonts.com/icon -->
<!DOCTYPE svg PUBLIC "-//W3C//DTD SVG 1.1//EN" "http://www.w3.org/Graphics/SVG/1.1/DTD/svg11.dtd">
<svg version="1.1" xmlns="http://www.w3.org/2000/svg" xmlns:xlink="http://www.w3.org/1999/xlink" x="0px" y="0px" viewBox="0 0 1000 1000" enable-background="new 0 0 1000 1000" xml:space="preserve">
<metadata> Svg Vector Icons : http://www.onlinewebfonts.com/icon </metadata>
<g><g transform="translate(0.000000,511.000000) scale(0.100000,-0.100000)"><path d="M6426.9,4968.6c-116.8-20.8-281.5-58.4-364.9-83.4c-241.8-73-631.7-275.2-850.6-442c-225.2-171-181.4-173-431.6,18.8c-221,168.9-640,366.9-936.1,446.2c-241.9,64.6-264.8,66.7-688,66.7c-356.5,2.1-469.1-4.2-604.6-37.5c-658.8-152.2-1146.7-419.1-1605.3-877.7C585.1,3701,374.5,3367.4,226.5,2927.5c-123-371.1-160.5-856.9-93.8-1242.6C224.4,1157.4,535,536.1,908.2,129.6c79.2-85.5,888.1-1061.2,1799.2-2168.3C4959.1-4774,4963.3-4780.3,4977.9-4784.4c6.3-2.1,898.6,1061.2,1982.7,2364.2C8044.7-1119.2,9014.2,42,9116.4,158.8c308.6,352.3,523.3,723.5,656.7,1127.9c158.4,481.6,168.9,1071.6,29.2,1551.1c-52.1,181.4-231.4,602.5-323.2,761c-398.2,685.9-1036.2,1152.9-1824.3,1338.5C7342.1,5012.4,6741.7,5026.9,6426.9,4968.6z M3551.9,4176.3c485.8-100.1,865.2-356.5,1336.4-898.6c54.2-62.5,104.2-116.8,112.6-120.9c6.3-2.1,81.3,75,166.8,173c383.6,448.2,746.4,702.6,1177.9,827.7c148,41.7,208.5,47.9,542.1,45.9c346.1,0,389.9-6.3,562.9-58.4C8069.8,3957.4,8568,3578,8866.2,3069.3c160.5-273.1,256.4-713,235.6-1071.6c-25-396.1-200.2-867.3-435.7-1163.4c-60.4-77.1-915.2-1102.9-1897.2-2278.7L4982.1-3583.5l-1738.8,2112C2286.3-310.3,1473.2,667.5,1437.8,702.9c-154.3,143.9-402.4,596.3-496.2,898.6c-50,166.8-56.3,218.9-56.3,508.7c-2.1,385.7,20.8,487.9,185.6,823.5c256.4,527.5,731.8,944.4,1313.5,1155C2734.6,4215.9,3197.4,4249.3,3551.9,4176.3z"/></g></g>
</svg>